# xmcd
#
# Track frame offsets:
#	150
#	13053
#	24600
#	35681
#	52546
#	62765
#	77124
#	89802
#	101608
#	112935
#	125252
#	137192
#	149963
#	163284
#	177045
#	189068
#	202457
#	215089
#	227681
#	241942
#
# Disc length: 3388 seconds
#
# Revision: 1
# Processed by: cddbd v1.5.2PL0 Copyright (c) Steve Scherf et al.
# Submitted via: EZCDAudioConverter 2.1.7.1
#
DISCID=240d3a14
DTITLE=V/A - Treasure Isle Presents: Rock Steady 1/2
DYEAR=1995
DGENRE=
TTITLE0=Alton Ellis and The Flames - Girl I've Got A Date
TTITLE1=Phyllis Dillon - Don't Stay Away
TTITLE2=Justin Hinds and The Dominoes - Here I Stand
TTITLE3=Lester Sterling and Tommy McCook - Inez (aka Tracy's Theme)
TTITLE4=Alton Ellis and The Flames - Cry Tough
TTITLE5=The Paragons - Happy Go Lucky Girl
TTITLE6=Justin Hinds and The Dominoes - Save A Bread
TTITLE7=The Paragons - On The Beach
TTITLE8=Three Tops - Do It Right
TTITLE9=The Paragons - The Tide Is High
TTITLE10=Alton Ellis and The Flames - Rock Steady
TTITLE11=The Jamaicans - Things You Say You Love
TTITLE12=The Paragons - Only A Smile
TTITLE13=The Melodians - I Will Get Along (Without You)
TTITLE14=The Techniques - You Don't Care (aka You'll Want Me Back)
TTITLE15=Three Tops - It's Raining
TTITLE16=Alton Ellis and The Flames - Ain't That Loving You?
TTITLE17=Phyllis Dillon - Perfidia
TTITLE18=The Melodians - You Don't Need Me
TTITLE19=Alton Ellis and The Flames - All My Tears (Come Rolling)
EXTD=
EXTT0=
EXTT1=
EXTT2=
EXTT3=
EXTT4=
EXTT5=
EXTT6=
EXTT7=
EXTT8=
EXTT9=
EXTT10=
EXTT11=
EXTT12=
EXTT13=
EXTT14=
EXTT15=
EXTT16=
EXTT17=
EXTT18=
EXTT19=
PLAYORDER=
